<mxfile host="app.diagrams.net" agent="Mozilla/5.0 (Windows NT 10.0; Win64; x64) AppleWebKit/537.36 (KHTML, like Gecko) Chrome/128.0.0.0 Safari/537.36" version="24.7.8">
  <diagram name="Page-1" id="rAipnpY6if4Uxea_I3sy">
    <mxGraphModel dx="1221" dy="1796" grid="1" gridSize="10" guides="0" tooltips="1" connect="1" arrows="1" fold="1" page="1" pageScale="1" pageWidth="850" pageHeight="1100" math="0" shadow="0">
      <root>
        <mxCell id="0" />
        <mxCell id="1" parent="0" />
        <mxCell id="u4HPYOXJs1BORz4n1qvN-8" value="" style="rounded=0;whiteSpace=wrap;html=1;" vertex="1" parent="1">
          <mxGeometry x="150" y="-710" width="730" height="680" as="geometry" />
        </mxCell>
        <mxCell id="u4HPYOXJs1BORz4n1qvN-1" value="Admin" style="shape=umlActor;verticalLabelPosition=bottom;verticalAlign=top;html=1;outlineConnect=0;fillColor=#ffe6cc;strokeColor=#d79b00;" vertex="1" parent="1">
          <mxGeometry x="50" y="-390" width="30" height="60" as="geometry" />
        </mxCell>
        <mxCell id="u4HPYOXJs1BORz4n1qvN-5" value="Login" style="ellipse;whiteSpace=wrap;html=1;" vertex="1" parent="1">
          <mxGeometry x="490" y="-600" width="100" height="50" as="geometry" />
        </mxCell>
        <mxCell id="u4HPYOXJs1BORz4n1qvN-6" value="Manage Movie" style="ellipse;whiteSpace=wrap;html=1;" vertex="1" parent="1">
          <mxGeometry x="180" y="-575" width="100" height="50" as="geometry" />
        </mxCell>
        <mxCell id="u4HPYOXJs1BORz4n1qvN-9" value="Manage Room" style="ellipse;whiteSpace=wrap;html=1;" vertex="1" parent="1">
          <mxGeometry x="300" y="-470" width="100" height="50" as="geometry" />
        </mxCell>
        <mxCell id="u4HPYOXJs1BORz4n1qvN-10" value="Manage Showtime" style="ellipse;whiteSpace=wrap;html=1;" vertex="1" parent="1">
          <mxGeometry x="220" y="-340" width="100" height="50" as="geometry" />
        </mxCell>
        <mxCell id="u4HPYOXJs1BORz4n1qvN-11" value="Manage User" style="ellipse;whiteSpace=wrap;html=1;" vertex="1" parent="1">
          <mxGeometry x="180" y="-260" width="100" height="50" as="geometry" />
        </mxCell>
        <mxCell id="u4HPYOXJs1BORz4n1qvN-12" value="User Normal (Customer)" style="shape=umlActor;verticalLabelPosition=bottom;verticalAlign=top;html=1;outlineConnect=0;fillColor=#ffe6cc;strokeColor=#d79b00;" vertex="1" parent="1">
          <mxGeometry x="930" y="-390" width="30" height="60" as="geometry" />
        </mxCell>
        <mxCell id="u4HPYOXJs1BORz4n1qvN-13" value="" style="endArrow=classic;html=1;rounded=0;" edge="1" parent="1" source="u4HPYOXJs1BORz4n1qvN-12" target="u4HPYOXJs1BORz4n1qvN-5">
          <mxGeometry width="50" height="50" relative="1" as="geometry">
            <mxPoint x="310" y="-410" as="sourcePoint" />
            <mxPoint x="360" y="-460" as="targetPoint" />
          </mxGeometry>
        </mxCell>
        <mxCell id="u4HPYOXJs1BORz4n1qvN-17" value="" style="endArrow=classic;html=1;rounded=0;" edge="1" parent="1" source="u4HPYOXJs1BORz4n1qvN-1" target="u4HPYOXJs1BORz4n1qvN-5">
          <mxGeometry width="50" height="50" relative="1" as="geometry">
            <mxPoint x="310" y="-410" as="sourcePoint" />
            <mxPoint x="360" y="-460" as="targetPoint" />
          </mxGeometry>
        </mxCell>
        <mxCell id="u4HPYOXJs1BORz4n1qvN-19" value="" style="endArrow=classic;html=1;rounded=0;" edge="1" parent="1" source="u4HPYOXJs1BORz4n1qvN-1" target="u4HPYOXJs1BORz4n1qvN-6">
          <mxGeometry width="50" height="50" relative="1" as="geometry">
            <mxPoint x="100" y="-412" as="sourcePoint" />
            <mxPoint x="283" y="-554" as="targetPoint" />
          </mxGeometry>
        </mxCell>
        <mxCell id="u4HPYOXJs1BORz4n1qvN-20" value="" style="endArrow=classic;html=1;rounded=0;" edge="1" parent="1" source="u4HPYOXJs1BORz4n1qvN-1" target="u4HPYOXJs1BORz4n1qvN-9">
          <mxGeometry width="50" height="50" relative="1" as="geometry">
            <mxPoint x="110" y="-402" as="sourcePoint" />
            <mxPoint x="293" y="-544" as="targetPoint" />
          </mxGeometry>
        </mxCell>
        <mxCell id="u4HPYOXJs1BORz4n1qvN-21" value="" style="endArrow=classic;html=1;rounded=0;" edge="1" parent="1" source="u4HPYOXJs1BORz4n1qvN-1" target="u4HPYOXJs1BORz4n1qvN-10">
          <mxGeometry width="50" height="50" relative="1" as="geometry">
            <mxPoint x="120" y="-392" as="sourcePoint" />
            <mxPoint x="303" y="-534" as="targetPoint" />
          </mxGeometry>
        </mxCell>
        <mxCell id="u4HPYOXJs1BORz4n1qvN-22" value="" style="endArrow=classic;html=1;rounded=0;" edge="1" parent="1" source="u4HPYOXJs1BORz4n1qvN-1" target="u4HPYOXJs1BORz4n1qvN-11">
          <mxGeometry width="50" height="50" relative="1" as="geometry">
            <mxPoint x="130" y="-382" as="sourcePoint" />
            <mxPoint x="313" y="-524" as="targetPoint" />
          </mxGeometry>
        </mxCell>
        <mxCell id="u4HPYOXJs1BORz4n1qvN-23" value="Manage Ticket Booked" style="ellipse;whiteSpace=wrap;html=1;" vertex="1" parent="1">
          <mxGeometry x="180" y="-150" width="100" height="50" as="geometry" />
        </mxCell>
        <mxCell id="u4HPYOXJs1BORz4n1qvN-24" value="" style="endArrow=classic;html=1;rounded=0;" edge="1" parent="1" source="u4HPYOXJs1BORz4n1qvN-1" target="u4HPYOXJs1BORz4n1qvN-23">
          <mxGeometry width="50" height="50" relative="1" as="geometry">
            <mxPoint x="100" y="-391" as="sourcePoint" />
            <mxPoint x="237" y="-314" as="targetPoint" />
          </mxGeometry>
        </mxCell>
        <mxCell id="u4HPYOXJs1BORz4n1qvN-25" value="Book Ticket" style="ellipse;whiteSpace=wrap;html=1;" vertex="1" parent="1">
          <mxGeometry x="730" y="-370" width="100" height="50" as="geometry" />
        </mxCell>
        <mxCell id="u4HPYOXJs1BORz4n1qvN-26" value="Check Info Ticket Booked" style="ellipse;whiteSpace=wrap;html=1;" vertex="1" parent="1">
          <mxGeometry x="680" y="-150" width="100" height="50" as="geometry" />
        </mxCell>
        <mxCell id="u4HPYOXJs1BORz4n1qvN-27" value="" style="endArrow=classic;html=1;rounded=0;" edge="1" parent="1" source="u4HPYOXJs1BORz4n1qvN-12" target="u4HPYOXJs1BORz4n1qvN-25">
          <mxGeometry width="50" height="50" relative="1" as="geometry">
            <mxPoint x="750" y="-350" as="sourcePoint" />
            <mxPoint x="465" y="-545" as="targetPoint" />
          </mxGeometry>
        </mxCell>
        <mxCell id="u4HPYOXJs1BORz4n1qvN-28" value="" style="endArrow=classic;html=1;rounded=0;" edge="1" parent="1" source="u4HPYOXJs1BORz4n1qvN-12" target="u4HPYOXJs1BORz4n1qvN-26">
          <mxGeometry width="50" height="50" relative="1" as="geometry">
            <mxPoint x="760" y="-340" as="sourcePoint" />
            <mxPoint x="475" y="-535" as="targetPoint" />
          </mxGeometry>
        </mxCell>
        <mxCell id="u4HPYOXJs1BORz4n1qvN-29" value="Add new movie" style="ellipse;whiteSpace=wrap;html=1;" vertex="1" parent="1">
          <mxGeometry x="230" y="-690" width="100" height="50" as="geometry" />
        </mxCell>
        <mxCell id="u4HPYOXJs1BORz4n1qvN-30" value="Edit movie" style="ellipse;whiteSpace=wrap;html=1;" vertex="1" parent="1">
          <mxGeometry x="320" y="-650" width="100" height="50" as="geometry" />
        </mxCell>
        <mxCell id="u4HPYOXJs1BORz4n1qvN-31" value="Remove movie" style="ellipse;whiteSpace=wrap;html=1;" vertex="1" parent="1">
          <mxGeometry x="300" y="-575" width="100" height="50" as="geometry" />
        </mxCell>
        <mxCell id="u4HPYOXJs1BORz4n1qvN-32" value="" style="endArrow=classic;html=1;rounded=0;" edge="1" parent="1" source="u4HPYOXJs1BORz4n1qvN-6" target="u4HPYOXJs1BORz4n1qvN-31">
          <mxGeometry width="50" height="50" relative="1" as="geometry">
            <mxPoint x="90" y="-367" as="sourcePoint" />
            <mxPoint x="220" y="-517" as="targetPoint" />
          </mxGeometry>
        </mxCell>
        <mxCell id="u4HPYOXJs1BORz4n1qvN-33" value="" style="endArrow=classic;html=1;rounded=0;" edge="1" parent="1" source="u4HPYOXJs1BORz4n1qvN-6" target="u4HPYOXJs1BORz4n1qvN-30">
          <mxGeometry width="50" height="50" relative="1" as="geometry">
            <mxPoint x="290" y="-542" as="sourcePoint" />
            <mxPoint x="320" y="-543" as="targetPoint" />
          </mxGeometry>
        </mxCell>
        <mxCell id="u4HPYOXJs1BORz4n1qvN-34" value="" style="endArrow=classic;html=1;rounded=0;" edge="1" parent="1" source="u4HPYOXJs1BORz4n1qvN-6" target="u4HPYOXJs1BORz4n1qvN-29">
          <mxGeometry width="50" height="50" relative="1" as="geometry">
            <mxPoint x="300" y="-532" as="sourcePoint" />
            <mxPoint x="330" y="-533" as="targetPoint" />
          </mxGeometry>
        </mxCell>
        <mxCell id="u4HPYOXJs1BORz4n1qvN-35" value="Add new room" style="ellipse;whiteSpace=wrap;html=1;" vertex="1" parent="1">
          <mxGeometry x="430" y="-530" width="100" height="50" as="geometry" />
        </mxCell>
        <mxCell id="u4HPYOXJs1BORz4n1qvN-36" value="Edit room" style="ellipse;whiteSpace=wrap;html=1;" vertex="1" parent="1">
          <mxGeometry x="450" y="-480" width="100" height="50" as="geometry" />
        </mxCell>
        <mxCell id="u4HPYOXJs1BORz4n1qvN-37" value="Remove room" style="ellipse;whiteSpace=wrap;html=1;" vertex="1" parent="1">
          <mxGeometry x="440" y="-420" width="100" height="50" as="geometry" />
        </mxCell>
        <mxCell id="u4HPYOXJs1BORz4n1qvN-38" value="" style="endArrow=classic;html=1;rounded=0;" edge="1" parent="1" source="u4HPYOXJs1BORz4n1qvN-9" target="u4HPYOXJs1BORz4n1qvN-35">
          <mxGeometry width="50" height="50" relative="1" as="geometry">
            <mxPoint x="274" y="-558" as="sourcePoint" />
            <mxPoint x="346" y="-597" as="targetPoint" />
          </mxGeometry>
        </mxCell>
        <mxCell id="u4HPYOXJs1BORz4n1qvN-39" value="" style="endArrow=classic;html=1;rounded=0;" edge="1" parent="1" source="u4HPYOXJs1BORz4n1qvN-9" target="u4HPYOXJs1BORz4n1qvN-36">
          <mxGeometry width="50" height="50" relative="1" as="geometry">
            <mxPoint x="284" y="-548" as="sourcePoint" />
            <mxPoint x="356" y="-587" as="targetPoint" />
          </mxGeometry>
        </mxCell>
        <mxCell id="u4HPYOXJs1BORz4n1qvN-40" value="" style="endArrow=classic;html=1;rounded=0;" edge="1" parent="1" source="u4HPYOXJs1BORz4n1qvN-9" target="u4HPYOXJs1BORz4n1qvN-37">
          <mxGeometry width="50" height="50" relative="1" as="geometry">
            <mxPoint x="294" y="-538" as="sourcePoint" />
            <mxPoint x="366" y="-577" as="targetPoint" />
          </mxGeometry>
        </mxCell>
        <mxCell id="u4HPYOXJs1BORz4n1qvN-41" value="Add new Showtime" style="ellipse;whiteSpace=wrap;html=1;" vertex="1" parent="1">
          <mxGeometry x="290" y="-410" width="100" height="50" as="geometry" />
        </mxCell>
        <mxCell id="u4HPYOXJs1BORz4n1qvN-42" value="Edit showtime" style="ellipse;whiteSpace=wrap;html=1;" vertex="1" parent="1">
          <mxGeometry x="375" y="-370" width="100" height="50" as="geometry" />
        </mxCell>
        <mxCell id="u4HPYOXJs1BORz4n1qvN-43" value="Remove Showtime" style="ellipse;whiteSpace=wrap;html=1;" vertex="1" parent="1">
          <mxGeometry x="420" y="-320" width="100" height="50" as="geometry" />
        </mxCell>
        <mxCell id="u4HPYOXJs1BORz4n1qvN-44" value="" style="endArrow=classic;html=1;rounded=0;" edge="1" parent="1" source="u4HPYOXJs1BORz4n1qvN-10" target="u4HPYOXJs1BORz4n1qvN-41">
          <mxGeometry width="50" height="50" relative="1" as="geometry">
            <mxPoint x="90" y="-347" as="sourcePoint" />
            <mxPoint x="234" y="-315" as="targetPoint" />
          </mxGeometry>
        </mxCell>
        <mxCell id="u4HPYOXJs1BORz4n1qvN-45" value="" style="endArrow=classic;html=1;rounded=0;" edge="1" parent="1" source="u4HPYOXJs1BORz4n1qvN-10" target="u4HPYOXJs1BORz4n1qvN-42">
          <mxGeometry width="50" height="50" relative="1" as="geometry">
            <mxPoint x="100" y="-337" as="sourcePoint" />
            <mxPoint x="244" y="-305" as="targetPoint" />
          </mxGeometry>
        </mxCell>
        <mxCell id="u4HPYOXJs1BORz4n1qvN-46" value="" style="endArrow=classic;html=1;rounded=0;" edge="1" parent="1" source="u4HPYOXJs1BORz4n1qvN-10" target="u4HPYOXJs1BORz4n1qvN-43">
          <mxGeometry width="50" height="50" relative="1" as="geometry">
            <mxPoint x="110" y="-327" as="sourcePoint" />
            <mxPoint x="254" y="-295" as="targetPoint" />
          </mxGeometry>
        </mxCell>
        <mxCell id="u4HPYOXJs1BORz4n1qvN-48" value="Edit user" style="ellipse;whiteSpace=wrap;html=1;" vertex="1" parent="1">
          <mxGeometry x="320" y="-290" width="100" height="50" as="geometry" />
        </mxCell>
        <mxCell id="u4HPYOXJs1BORz4n1qvN-49" value="Remove user" style="ellipse;whiteSpace=wrap;html=1;" vertex="1" parent="1">
          <mxGeometry x="310" y="-230" width="100" height="50" as="geometry" />
        </mxCell>
        <mxCell id="u4HPYOXJs1BORz4n1qvN-50" value="" style="endArrow=classic;html=1;rounded=0;" edge="1" parent="1" source="u4HPYOXJs1BORz4n1qvN-11" target="u4HPYOXJs1BORz4n1qvN-48">
          <mxGeometry width="50" height="50" relative="1" as="geometry">
            <mxPoint x="323" y="-292" as="sourcePoint" />
            <mxPoint x="367" y="-278" as="targetPoint" />
          </mxGeometry>
        </mxCell>
        <mxCell id="u4HPYOXJs1BORz4n1qvN-51" value="" style="endArrow=classic;html=1;rounded=0;" edge="1" parent="1" source="u4HPYOXJs1BORz4n1qvN-11" target="u4HPYOXJs1BORz4n1qvN-49">
          <mxGeometry width="50" height="50" relative="1" as="geometry">
            <mxPoint x="333" y="-282" as="sourcePoint" />
            <mxPoint x="377" y="-268" as="targetPoint" />
          </mxGeometry>
        </mxCell>
        <mxCell id="u4HPYOXJs1BORz4n1qvN-52" value="Edit ticket" style="ellipse;whiteSpace=wrap;html=1;" vertex="1" parent="1">
          <mxGeometry x="300" y="-170" width="100" height="50" as="geometry" />
        </mxCell>
        <mxCell id="u4HPYOXJs1BORz4n1qvN-53" value="Remove ticket" style="ellipse;whiteSpace=wrap;html=1;" vertex="1" parent="1">
          <mxGeometry x="290" y="-100" width="100" height="50" as="geometry" />
        </mxCell>
        <mxCell id="u4HPYOXJs1BORz4n1qvN-54" value="" style="endArrow=classic;html=1;rounded=0;" edge="1" parent="1" source="u4HPYOXJs1BORz4n1qvN-23" target="u4HPYOXJs1BORz4n1qvN-52">
          <mxGeometry width="50" height="50" relative="1" as="geometry">
            <mxPoint x="291" y="-231" as="sourcePoint" />
            <mxPoint x="349" y="-210" as="targetPoint" />
          </mxGeometry>
        </mxCell>
        <mxCell id="u4HPYOXJs1BORz4n1qvN-55" value="" style="endArrow=classic;html=1;rounded=0;" edge="1" parent="1" source="u4HPYOXJs1BORz4n1qvN-23" target="u4HPYOXJs1BORz4n1qvN-53">
          <mxGeometry width="50" height="50" relative="1" as="geometry">
            <mxPoint x="301" y="-221" as="sourcePoint" />
            <mxPoint x="359" y="-200" as="targetPoint" />
          </mxGeometry>
        </mxCell>
        <mxCell id="u4HPYOXJs1BORz4n1qvN-56" value="Search Movie" style="ellipse;whiteSpace=wrap;html=1;" vertex="1" parent="1">
          <mxGeometry x="620" y="-460" width="100" height="50" as="geometry" />
        </mxCell>
        <mxCell id="u4HPYOXJs1BORz4n1qvN-57" value="Choose Movie" style="ellipse;whiteSpace=wrap;html=1;" vertex="1" parent="1">
          <mxGeometry x="570" y="-395" width="100" height="50" as="geometry" />
        </mxCell>
        <mxCell id="u4HPYOXJs1BORz4n1qvN-58" value="Chosse Showtime" style="ellipse;whiteSpace=wrap;html=1;" vertex="1" parent="1">
          <mxGeometry x="550" y="-330" width="100" height="50" as="geometry" />
        </mxCell>
        <mxCell id="u4HPYOXJs1BORz4n1qvN-59" value="Chosse Seat" style="ellipse;whiteSpace=wrap;html=1;" vertex="1" parent="1">
          <mxGeometry x="560" y="-250" width="100" height="50" as="geometry" />
        </mxCell>
        <mxCell id="u4HPYOXJs1BORz4n1qvN-61" value="" style="endArrow=classic;html=1;rounded=0;" edge="1" parent="1" source="u4HPYOXJs1BORz4n1qvN-25" target="u4HPYOXJs1BORz4n1qvN-56">
          <mxGeometry width="50" height="50" relative="1" as="geometry">
            <mxPoint x="940" y="-321" as="sourcePoint" />
            <mxPoint x="839" y="-331" as="targetPoint" />
          </mxGeometry>
        </mxCell>
        <mxCell id="u4HPYOXJs1BORz4n1qvN-62" value="" style="endArrow=classic;html=1;rounded=0;" edge="1" parent="1" source="u4HPYOXJs1BORz4n1qvN-25" target="u4HPYOXJs1BORz4n1qvN-57">
          <mxGeometry width="50" height="50" relative="1" as="geometry">
            <mxPoint x="950" y="-311" as="sourcePoint" />
            <mxPoint x="849" y="-321" as="targetPoint" />
          </mxGeometry>
        </mxCell>
        <mxCell id="u4HPYOXJs1BORz4n1qvN-63" value="" style="endArrow=classic;html=1;rounded=0;" edge="1" parent="1" source="u4HPYOXJs1BORz4n1qvN-25" target="u4HPYOXJs1BORz4n1qvN-58">
          <mxGeometry width="50" height="50" relative="1" as="geometry">
            <mxPoint x="960" y="-301" as="sourcePoint" />
            <mxPoint x="859" y="-311" as="targetPoint" />
          </mxGeometry>
        </mxCell>
        <mxCell id="u4HPYOXJs1BORz4n1qvN-64" value="" style="endArrow=classic;html=1;rounded=0;" edge="1" parent="1" source="u4HPYOXJs1BORz4n1qvN-25" target="u4HPYOXJs1BORz4n1qvN-59">
          <mxGeometry width="50" height="50" relative="1" as="geometry">
            <mxPoint x="970" y="-291" as="sourcePoint" />
            <mxPoint x="869" y="-301" as="targetPoint" />
          </mxGeometry>
        </mxCell>
      </root>
    </mxGraphModel>
  </diagram>
</mxfile>
